<svg xmlns="http://www.w3.org/2000/svg" width="204" height="18" viewBox="0 0 203.995 18"><path fill="#222222" d="M10.3.07v3.58H3.44v3.6h5.14v3.58H3.44V18H0V.07h10.3zM25.84 2.75c1.68 1.76 2.52 3.87 2.52 6.32s-.84 4.57-2.52 6.3C24.16 17.14 22.14 18 19.8 18s-4.37-.87-6.04-2.62c-1.67-1.74-2.5-3.85-2.5-6.3s.83-4.57 2.5-6.33C15.43 1 17.44.12 19.8.12s4.36.88 6.04 2.63zm-9.67 2.52c-1 1.05-1.5 2.3-1.5 3.78s.5 2.75 1.5 3.8c1 1.03 2.2 1.56 3.62 1.56 1.4 0 2.6-.52 3.62-1.56s1.5-2.3 1.5-3.8c0-1.46-.5-2.72-1.5-3.77S21.2 3.7 19.8 3.7c-1.42 0-2.63.5-3.63 1.57zM43.88 2.75c1.68 1.76 2.52 3.87 2.52 6.32s-.84 4.57-2.52 6.3C42.2 17.14 40.18 18 37.83 18s-4.36-.87-6.03-2.62c-1.67-1.74-2.5-3.85-2.5-6.3s.83-4.57 2.5-6.33C33.47 1 35.48.12 37.83.12s4.37.88 6.05 2.63zM34.2 5.28c-1 1.05-1.5 2.3-1.5 3.78s.5 2.75 1.5 3.8c1 1.03 2.22 1.56 3.63 1.56 1.4 0 2.62-.52 3.63-1.56s1.5-2.3 1.5-3.8c0-1.46-.5-2.72-1.5-3.77S39.23 3.7 37.82 3.7c-1.4 0-2.62.5-3.62 1.57zM64.56.07v3.58H57.7v3.6h5.14v3.58H57.7V18h-3.44V.07h10.3zM65.94.07h3.44V18h-3.44V.07zM79.3.15c1.2 0 2.3.24 3.33.7 1.04.48 1.95 1.12 2.74 1.92L82.95 5.3c-1.02-1.06-2.22-1.6-3.62-1.6-1.42 0-2.63.54-3.62 1.6s-1.5 2.3-1.5 3.78.5 2.74 1.5 3.78c1 1.04 2.2 1.57 3.63 1.57 1.1 0 2.1-.33 2.98-1 .88-.67 1.5-1.52 1.86-2.57h-4.84V7.3h8.38c.1.56.16 1.15.16 1.77 0 2.46-.84 4.57-2.52 6.3-1.68 1.76-3.7 2.63-6.04 2.63s-4.37-.87-6.04-2.62c-1.67-1.74-2.5-3.85-2.5-6.3s.83-4.57 2.5-6.33C74.93 1 76.96.12 79.3.12v.04zM92.67.07v7.17h5.14V.07h3.45V18H97.8v-7.17h-5.13V18h-3.44V.07h3.44zM110.57.07h4.3v3.58h-4.3V18h-3.44V3.65h-4.3V.07h7.74zM126.76.07v3.58h-6.86v3.6h5.14v3.58h-5.14v3.58h6.86V18h-10.3V.07h10.3zM128.45.05h5.58c1.65 0 3.28.6 4.46 1.83 1.17 1.24 1.65 2.4 1.65 4.12v.55c0 1.34-.36 2.32-1.08 3.4-.73 1.05-1.34 1.36-2.46 1.8L140.5 18h-4.2l-4.38-7v7h-3.44V.05zm5.9 8.64c.7 0 1.07-.2 1.57-.72.5-.53.7-1.13.7-1.87 0-.73-.2-1.22-.7-1.75-.5-.53-1.4-.72-2.1-.72h-1.93v5.05h2.45zM147.2 14.38c.92 0 1.7-.8 1.7-1.78 0-.76-.28-1.24-.86-1.46l-2.1-.8c-1.26-.44-2.4-1.33-3.2-2.44-.45-.66-.68-1.47-.68-2.45 0-1.47.5-2.73 1.5-3.78S145.8.1 147.2.1c1.4 0 2.6.52 3.62 1.57s1.5 2.3 1.5 3.78h-3.4c0-.96-.77-1.77-1.7-1.77-.93 0-1.7.8-1.7 1.8 0 .62.23 1.1.72 1.43 1 .7.9.56 2.1.93 1.3.4 2.48 1.24 3.3 2.33.46.64.7 1.46.7 2.46 0 1.48-.5 2.74-1.5 3.8-1.02 1.05-2.22 1.57-3.63 1.57-1.4 0-2.6-.53-3.62-1.6-1-1.04-1.5-2.3-1.5-3.78h3.4c0 1 .78 1.8 1.72 1.8v-.04z"/><path fill="#C64041" d="M163.95.07V14.4h6.86V18h-10.3V.07h3.45zM172.2.07h3.43V18h-3.44V.07zM184.55 18L177 .13h3.56l3.98 9.58 3.98-9.58H192.12l-7.57 17.9zM203.8.07v3.58h-6.86v3.6h5.15v3.58h-5.16v3.58h6.86V18h-10.3V.07h10.3z"/></svg>