<svg xmlns="http://www.w3.org/2000/svg" viewBox="0 0 489.121 489.121" width="24" height="24"><g fill="#757891"><path d="M149.2 204.4c0-8.5-4.7-16.3-11.7-20.2l21.4-37.7c-9.8-5.4-21-8.5-32.7-8.5s-23 3-32.6 8.5l21.4 37.7c-7 4-11.6 11.7-11.6 20.2H60.2c0 25 13.6 46.2 33.8 58l21.4-37.8c3.5 2 7.4 3 11.3 3 4.3 0 8.2-1 11.3-3l21.4 37.7c20.2-11.3 33.8-33 33.8-57.5l-44-.4zM386.6 208c0-8.6-4.7-16.4-11.7-20.3l21.3-37.7c-9.7-5.4-21-8.5-32.6-8.5-12 0-23 3-32.6 8.5l21.5 37.7c-7 4-11.7 11.7-11.7 20.2h-43.2c0 24.8 13.6 46 33.8 57.8l21.4-37.7c3.5 2 7.4 3.2 11.3 3.2 4.4 0 8.3-1.2 11.4-3l21.4 37.6c20.2-11.3 33.8-33 33.8-57.5l-44-.4z"/><path d="M470.6 67.6H19c-10.5 0-19 8.5-19 19v316c0 10.5 8.5 19 19 19h451c10.6 0 19-8.5 19-19v-316c.6-10.4-8-19-18.4-19zM115.4 366.8c0 5.4-4.3 10-10 10-5.5 0-10.2-4.2-10.2-10v-10c0-5.5 4.3-10.2 10-10.2 5.5 0 10.2 4.3 10.2 10V367zm55.6 0c0 5.4-4.3 10-10 10-5.5 0-10.2-4.2-10.2-10v-10c0-5.5 4.3-10.2 10-10.2 5.5 0 10.2 4.3 10.2 10V367zm56 0c0 5.4-4.4 10-10.2 10s-10-4.2-10-10v-10c0-5.5 4.2-10.2 10-10.2s10 4.3 10 10V367zM126.2 307C69.3 307 23 260.8 23 203.6s46-103.4 103.3-103.4c56.7 0 103 46.2 103 103.4S183 307 126.3 307zm156.2 59.8c0 5.4-4.3 10-10 10-5.5 0-10.2-4.2-10.2-10v-10c0-5.5 4.3-10.2 10-10.2 5.5 0 10.2 4.3 10.2 10V367zm56 0c0 5.4-4.4 10-10.2 10-5.4 0-10-4.2-10-10v-10c0-5.5 4.2-10.2 10-10.2 5.4 0 10 4.3 10 10V367zm56 0c0 5.4-4.4 10-10.2 10s-10-4.2-10-10v-10c0-5.5 4.2-10.2 10-10.2s10 4.3 10 10V367zM363.2 307c-56.7 0-103-46.2-103-103.4s46.3-103.4 103.4-103.4S467 146.5 467 203.6 420.5 307 363.4 307z"/></g></svg>