<svg xmlns="http://www.w3.org/2000/svg" width="24" height="48" viewBox="0 -12 24 48"><path fill="none" d="M0 0h24v24H0V0z"/><path fill="#E4BB24" d="M12 29.3l6.2 3.7-1.7-7 5.5-4.8-7.2-.6L12 14l-2.8 6.6-7.2.6L7.5 26l-1.7 7 6.2-3.7z"/><path fill="none" d="M0 0h24v24H0V0z"/><path fill="none" d="M0 12h24v24H0V12z"/><path fill="#E4BB24" d="M22-2.8l-7.2-.6L12-10 9.2-3.4 2-2.8 7.5 2 5.8 9 12 5.3 18.2 9l-1.6-7L22-2.8zM12 3.4L8.2 5.7l1-4.3-3.3-3 4.3-.3L12-6l1.7 4 4.4.5-3.2 3 1 4.2L12 3.4z"/><path fill="none" d="M0-12h24v24H0v-24z"/></svg>