<svg xmlns="http://www.w3.org/2000/svg" width="32" height="32" viewBox="176 176 32 32"><circle fill="#FFF" cx="192" cy="192" r="16"/><path fill="#2D2E34" d="M202.4 186.3l-1.4.5c.6-.5 1-1.2 1.2-2 0 0-.2-.2-.4 0-.6.3-1.3.6-2 .7H199c-.8-.8-1.8-1.2-3-1.2-.4 0-.8 0-1.3.2-1.5.5-2.6 1.7-3 3v1.7c0 .2-.2.2-.2.2-3-.3-6-1.8-8-4.2 0-.2-.2 0-.3 0-.4.7-.6 1.4-.6 2.2 0 1.2.4 2.3 1.2 3-.3 0-.7 0-1-.3-.2 0-.3.2-.3.3-.2 1.8 1 3.4 2.4 4h-.8c-.2 0-.3 0-.3.3.5 1.6 2 2.7 3.5 3-1.3 1-3 1.4-4.5 1.4h-.5c-.2 0-.3 0-.4.2 0 .2 0 .3.2.4 1.8 1 4 1.6 6 1.6s3.6-.3 5.2-1c1.5-.7 2.7-1.7 3.8-3 1-1 1.8-2.3 2.3-3.8.4-1.3.7-2.8.7-4.2 0-.3 0-.5.3-.7.7-.5 1.2-1 1.7-2 0 0 0-.3-.3-.2zm0 0"/></svg>